<svg width="88" height="48" viewBox="0 0 88 48" fill="none" xmlns="http://www.w3.org/2000/svg">
<rect width="88" height="48" rx="24" fill="#5475F5"/>
<path d="M32.5269 18.0566C31.2307 16.3581 29.4165 15.1007 27.3442 14.4645C25.2719 13.8283 23.048 13.846 20.9912 14.5151C18.9343 15.1842 17.1502 16.4702 15.8944 18.189C14.6386 19.9077 13.9757 21.9709 14.0007 24.0829C14.0256 26.1948 14.7372 28.247 16.0334 29.9455C17.3295 31.6439 19.1437 32.9013 21.216 33.5375C23.2883 34.1737 25.5122 34.156 27.5691 33.4869C29.6259 32.8179 31.4101 31.5318 32.6658 29.8131L24.2801 24.001L32.5269 18.0566Z" fill="white"/>
<circle cx="42" cy="24" r="4" fill="white"/>
<circle cx="56" cy="24" r="4" fill="white"/>
<circle cx="69" cy="24" r="4" fill="white"/>
</svg>
